[img]http://img15.imageshack.us/img15/8163/greatgambler.jpg[/img]


[img]http://img819.imageshack.us/img819/5598/roadies1.jpg[/img]







[b][size=4][color=green]MTV Roadies 9 : Everything or Nothing is the ninth season of MTV Roadies, a reality television show aired on MTV India . The auditions started on 16 September from Pune following with Audition in Kolkata , Delhi, Chandhigarh and Hyderabad. Part of the season will take place in United States of America. The show started airing on MTV India from 7th January 2012 and every new episode airs on Saturdays at 7 P.M. IST.[/color][/size][/b]





[img]http://img18.imageshack.us/img18/6966/infoum.png[/img]

[b][size=5][color=green]General[/color][/size][/b]

[size=4][color=teal]Format                           : Flash Video
File size                        : 319 MiB
Duration                         : 49mn 46s
Overall bit rate                 : 896 Kbps
Writing application              : Lavf53.6.0[/color][/size]

[b][size=5][color=green]Video[/color][/size][/b]

[size=4][color=teal]Format                           : Sorenson Spark
Codec ID                         : 2
Duration                         : 49mn 46s
Bit rate                         : 781 Kbps
Width                            : 515 pixels
Height                           : 386 pixels
Display aspect ratio             : 4:3
Frame rate mode                  : Constant
Frame rate                       : 25.000 fps
Bit depth                        : 8 bits
Bits/(Pixel*Frame)               : 0.157
Stream size                      : 278 MiB (87%)
[/color][/size]

[b][size=5][color=green]Audio[/color][/size][/b]

[size=4][color=teal]Format                           : MPEG Audio
Format version                   : Version 2
Format profile                   : Layer 3
Mode                             : Joint stereo
Mode extension                   : MS Stereo
Codec ID                         : 2
Codec ID/Hint                    : MP3
Duration                         : 49mn 45s
Bit rate mode                    : Constant
Bit rate                         : 8 000 bps
Channel(s)                       : 2 channels
Sampling rate                    : 22.05 KHz
Compression mode                 : Lossy
Stream size                      : 2.85 MiB (1%)[/color][/size]


[img]http://img231.imageshack.us/img231/3671/screenshoots.png[/img]


[img]http://img43.imageshack.us/img43/7149/vlcsnap2012013120h00m14.png[/img]


[img]http://img526.imageshack.us/img526/6370/vlcsnap2012013120h00m29.png[/img]


[img]http://img692.imageshack.us/img692/1781/vlcsnap2012013120h00m38.png[/img]


[img]http://img51.imageshack.us/img51/9379/vlcsnap2012013120h00m58.png[/img]


[img]http://img197.imageshack.us/img197/2261/vlcsnap2012013120h01m15.png[/img]


[img]http://img402.imageshack.us/img402/3272/vlcsnap2012013120h01m26.png[/img]









[b][size=5][color=red]PLEASE APPRICIATE UPLOADERS WORK BY ADDING YOUR VALUABLE COMMENTS[/color][/size][/b]